HIERARCHY
ROOT Hips
{
	OFFSET 0.0000 0.0000 0.0000
	CHANNELS 6 Xposition Yposition Zposition Zrotation Xrotation Yrotation
	JOINT Ab
	{
		OFFSET -0.0000 8.0846 -0.0000
		CHANNELS 3 Zrotation Xrotation Yrotation
		JOINT Chest
		{
			OFFSET -0.0000 25.0068 -0.0000
			CHANNELS 3 Zrotation Xrotation Yrotation
			JOINT Neck
			{
				OFFSET -0.0000 25.0068 0.0000
				CHANNELS 3 Zrotation Xrotation Yrotation
				JOINT Head
				{
					OFFSET -0.0000 10.7556 0.0000
					CHANNELS 3 Zrotation Xrotation Yrotation
					End Site
					{
						OFFSET -0.0000 16.6222 0.0000
					}
				}
			}
			JOINT LeftCollar
			{
				OFFSET -0.0000 25.0068 0.0000
				CHANNELS 3 Zrotation Xrotation Yrotation
				JOINT LeftShoulder
				{
					OFFSET 19.5556 -0.0000 0.0000
					CHANNELS 3 Zrotation Xrotation Yrotation
					JOINT LeftElbow
					{
						OFFSET 27.1828 0.0000 0.0000
						CHANNELS 3 Zrotation Xrotation Yrotation
						JOINT LeftWrist
						{
							OFFSET 23.3157 0.0000 0.0000
							CHANNELS 3 Zrotation Xrotation Yrotation
							End Site
							{
								OFFSET 0.0000 -14.6667 0.0000
							}
						}
					}
				}
			}
			JOINT RightCollar
			{
				OFFSET -0.0000 25.0068 0.0000
				CHANNELS 3 Zrotation Xrotation Yrotation
				JOINT RightShoulder
				{
					OFFSET -19.5556 0.0000 0.0000
					CHANNELS 3 Zrotation Xrotation Yrotation
					JOINT RightElbow
					{
						OFFSET -27.1828 0.0000 0.0000
						CHANNELS 3 Zrotation Xrotation Yrotation
						JOINT RightWrist
						{
							OFFSET -23.3157 0.0000 0.0000
							CHANNELS 3 Zrotation Xrotation Yrotation
							End Site
							{
								OFFSET -0.0000 -14.6667 0.0000
							}
						}
					}
				}
			}
		}
	}
	JOINT LeftHip
	{
		OFFSET 11.7333 0.0000 0.0000
		CHANNELS 3 Zrotation Xrotation Yrotation
		JOINT LeftKnee
		{
			OFFSET -0.0000 -40.8688 0.0000
			CHANNELS 3 Zrotation Xrotation Yrotation
			JOINT LeftAnkle
			{
				OFFSET -0.0000 -44.4337 0.0000
				CHANNELS 3 Zrotation Xrotation Yrotation
				End Site
				{
					OFFSET -0.0000 -4.8889 16.6222
				}
			}
		}
	}
	JOINT RightHip
	{
		OFFSET -11.7333 0.0000 0.0000
		CHANNELS 3 Zrotation Xrotation Yrotation
		JOINT RightKnee
		{
			OFFSET -0.0000 -40.8688 0.0000
			CHANNELS 3 Zrotation Xrotation Yrotation
			JOINT RightAnkle
			{
				OFFSET -0.0000 -44.4337 0.0000
				CHANNELS 3 Zrotation Xrotation Yrotation
				End Site
				{
					OFFSET -0.0000 -4.8889 16.6222
				}
			}
		}
	}
}
MOTION
Frames: 22
Frame Time: 0.010000
-4.2829 88.8080 191.2262 2.4823 358.9249 175.0791 3.1577 358.4614 358.5201 358.2921 13.0420 358.6732 0.7027 337.9703 359.9269 5.1723 3.1852 359.6511 338.7306 358.3889 8.4820 301.8206 33.8472 353.8460 19.1204 353.6666 323.6283 81.7531 1.1506 346.1526 22.5316 359.4276 357.0932 58.8759 42.7343 10.8368 336.8359 353.9390 28.9376 279.8812 353.1692 19.4084 1.6514 357.6518 357.5911 358.9454 10.1439 359.9989 4.6410 352.8682 23.8562 1.9708 351.8713 359.6295 359.5513 16.9325 9.2316 354.8836 346.5320 338.1956 
-4.2794 88.8104 191.2427 2.4770 358.8744 175.0459 3.1465 358.4558 358.5101 358.3011 13.0412 358.6609 0.7858 338.0273 359.9842 4.9674 3.2414 359.6954 338.7246 358.3880 8.5288 301.7152 34.1136 353.9324 19.1997 353.6330 323.6294 81.6840 1.1500 346.3382 22.5266 359.4080 357.0794 58.9254 42.6703 10.7634 336.8752 353.9287 28.9699 279.8490 353.0773 19.5207 1.6545 357.5748 357.6075 358.9401 10.1883 0.0259 4.6615 352.8563 23.8520 1.9826 351.7868 359.6507 359.5386 16.9804 9.2451 354.8698 346.4784 338.1831 
-4.2770 88.8111 191.2366 2.4671 358.8866 175.0126 3.1288 358.4939 358.4969 358.3189 13.0591 358.6491 0.8374 338.0697 0.0554 4.8491 3.2795 359.7833 338.6957 358.4119 8.5475 301.6306 34.1050 354.0280 19.0968 353.6738 323.5066 81.5215 1.2052 346.3374 22.5224 359.3739 357.0108 58.8769 42.6863 10.7854 336.9012 353.9430 29.0139 279.9801 353.3393 19.4828 1.6487 357.6304 357.6068 358.9284 10.1228 0.0470 4.6538 352.8694 23.8628 1.9744 351.7935 359.6977 359.5508 16.9817 9.2744 354.8547 346.4573 338.1233 
-4.2736 88.8121 191.2354 2.4682 358.8884 174.9846 3.1283 358.5218 358.4816 358.3209 13.0792 358.6363 0.9337 338.1363 0.1996 4.6760 3.3002 359.8213 338.6890 358.3909 8.5763 301.5185 34.1791 354.1114 19.1058 353.6323 323.4179 81.3613 1.1544 346.3307 22.5248 359.4018 356.9711 58.8355 42.6189 10.8152 337.0468 354.0007 28.9995 279.8638 353.3391 19.5813 1.6494 357.6484 357.6251 358.9477 10.1082 359.9809 4.6563 352.8557 23.9160 1.9876 351.7621 359.7163 359.5304 17.0638 9.3231 354.9635 346.3808 338.1227 
-4.2692 88.8123 191.2295 2.4670 358.9020 174.9710 3.1167 358.5801 358.4661 358.3401 13.0560 358.6175 0.9823 338.1694 0.2358 4.5018 3.4004 359.9247 338.6608 358.3520 8.6531 301.4695 34.5401 354.1964 19.2158 353.6063 323.4654 81.2528 0.9766 346.4984 22.5155 359.3825 356.9511 58.8725 42.6199 10.7493 336.9903 353.9695 29.0071 279.8238 353.3420 19.6163 1.6455 357.6649 357.6345 358.9507 10.1149 0.0309 4.6470 352.8492 23.8734 1.9908 351.7661 359.7387 359.5336 17.0857 9.2638 354.8672 346.3346 338.1488 
-4.2665 88.8121 191.2190 2.4621 358.9005 174.9546 3.1422 358.6071 358.4358 358.3068 13.0522 358.5932 1.0955 338.2554 0.3413 4.3257 3.3894 0.0276 338.6296 358.3756 8.5851 301.3946 34.3658 354.4467 18.8967 353.7350 323.1907 81.4320 1.0749 346.3311 22.5299 359.4098 356.9301 58.8579 42.5476 10.7282 337.0994 353.9905 29.0123 279.7942 353.3705 19.7345 1.6421 357.6707 357.5987 358.9367 10.1213 0.0419 4.6590 352.8339 23.9209 1.9912 351.7544 359.7776 359.5347 17.1155 9.2991 354.9761 346.2430 338.1180 
-4.2609 88.8134 191.2142 2.4505 358.8860 174.9503 3.1344 358.6320 358.4158 358.3131 13.0400 358.5699 1.1785 338.2978 0.4380 4.1270 3.4174 0.1023 338.6049 358.3518 8.6797 301.3475 34.6848 354.4821 18.9880 353.6320 323.1418 81.2888 1.1357 346.3980 22.5253 359.3757 356.9178 58.8537 42.5776 10.6837 337.0265 353.9823 29.0204 279.8999 353.3796 19.6745 1.6383 357.6492 357.6001 358.9341 10.1416 359.9959 4.6822 352.8179 23.9743 1.9879 351.7159 359.7543 359.5226 17.1715 9.3417 354.9702 346.1797 338.0789 
-4.2533 88.8139 191.1962 2.4475 358.9032 174.9440 3.1374 358.6787 358.4041 358.3017 13.0340 358.5645 1.2531 338.3951 0.5277 4.0080 3.3600 0.1674 338.6029 358.3715 8.6651 301.2169 34.5007 354.6173 18.7195 353.7468 323.0156 81.4827 1.1353 346.2814 22.5320 359.4033 356.8995 58.8576 42.5060 10.6341 336.6983 353.8610 29.0653 280.7099 353.5995 18.0830 1.6410 357.6809 357.5832 358.9256 10.1377 0.0278 4.6641 352.7936 23.9558 1.9955 351.7229 359.7944 359.5181 17.2194 9.3720 355.1431 346.0110 337.9388 
-4.2479 88.8148 191.1850 2.4428 358.9004 174.9640 3.1439 358.7207 358.3834 358.2877 13.0067 358.5446 1.2958 338.4560 0.5863 3.9145 3.3499 0.2228 338.6037 358.3433 8.6941 301.1301 34.6595 354.7147 18.7443 353.6787 322.9531 81.3187 1.1275 346.2678 22.5431 359.3684 356.8491 58.8429 42.5470 10.5981 336.6017 353.8396 29.0460 280.7287 353.5000 17.9327 1.6366 357.6578 357.5690 358.9162 10.1773 0.1007 4.6551 352.7861 23.8991 1.9922 351.7122 359.8016 359.5271 17.2558 9.3325 355.1202 345.9539 337.9354 
-4.2372 88.8136 191.1606 2.4396 358.9232 174.9650 3.1211 358.7638 358.3884 358.3002 13.0236 358.5479 1.3316 338.4704 0.6374 3.8332 3.3770 0.2728 338.5811 358.3198 8.8138 301.1233 34.9856 354.6733 18.8044 353.6585 323.0491 81.3747 1.0770 346.3812 22.5309 359.3889 356.8348 58.8734 42.4873 10.5416 336.6994 353.8544 29.0492 280.6244 353.5005 17.9941 1.6375 357.6908 357.5787 358.9140 10.1896 0.0783 4.6554 352.7492 23.9177 1.9965 351.7359 359.8458 359.5305 17.2920 9.3260 355.1014 345.9017 337.9035 
-4.2268 88.8119 191.1383 2.4369 358.9305 174.9743 3.1137 358.7978 358.3842 358.2872 13.0095 358.5480 1.4031 338.5544 0.6873 3.7335 3.3325 0.3140 338.5762 358.2844 8.8728 301.0781 35.3061 354.7276 18.9498 353.6053 323.1376 81.4275 1.0401 346.6204 22.5409 359.3487 356.8189 58.9214 42.4485 10.4282 336.6596 353.8644 29.1158 280.6396 353.4719 17.9991 1.6487 357.7183 357.5390 358.8956 10.1827 0.0136 4.7007 352.7631 24.0084 2.0091 351.7376 359.8725 359.5183 17.3401 9.3499 355.3467 345.6773 337.8633 
-4.2177 88.8122 191.1199 2.4292 358.9265 175.0105 3.0961 358.8160 358.3843 358.2902 13.0316 358.5502 1.4401 338.5441 0.7044 3.6498 3.3529 0.3228 338.5541 358.3300 8.8767 301.0393 35.2801 354.7442 18.7527 353.7169 323.2574 82.1402 0.8661 346.8162 22.5356 359.3490 356.7888 58.9547 42.3896 10.3554 336.7326 353.8728 29.1409 280.5537 353.3909 18.0265 1.6397 357.6952 357.5359 358.9082 10.2297 0.0213 4.7060 352.7432 23.9790 2.0045 351.7335 359.9031 359.5308 17.3670 9.2813 355.3402 345.6490 337.8747 
-4.2058 88.8111 191.0964 2.4291 358.9213 175.0345 3.0602 358.8474 358.4210 358.3131 13.0231 358.5851 1.4136 338.5224 0.6631 3.6225 3.4342 0.2808 338.5404 358.3679 8.7895 300.9144 34.9732 354.8611 18.6154 353.7694 323.2425 82.5510 0.7825 346.7201 22.5150 359.3782 356.7527 59.0109 42.3083 10.2967 336.7866 353.8635 29.1821 280.5067 353.4178 18.1036 1.6497 357.7005 357.5473 358.9027 10.2262 0.0465 4.6780 352.7275 23.9294 2.0159 351.7202 359.9058 359.5195 17.4255 9.2802 355.0765 345.7742 337.8313 
-4.1954 88.8079 191.0698 2.4163 358.9131 175.0777 3.0403 358.8483 358.4265 358.3022 13.0461 358.5913 1.4910 338.5581 0.6692 3.5228 3.4013 0.2777 338.5475 358.3690 8.7712 300.8274 34.9331 354.8842 18.7341 353.7163 323.3310 82.6494 0.6649 346.7770 22.5256 359.3380 356.6739 58.9730 42.3506 10.2986 336.7211 353.8664 29.2163 280.5110 353.3712 18.0019 1.6390 357.6885 357.5498 358.9097 10.2520 0.0136 4.6730 352.6834 23.9183 2.0063 351.7333 359.8950 359.5257 17.4263 9.2490 355.3245 345.5829 337.8512 
-4.1837 88.8062 191.0388 2.4137 358.9136 175.1333 3.0098 358.8466 358.4349 358.3293 13.0973 358.5985 1.4545 338.5287 0.6443 3.5454 3.4518 0.2556 338.5555 358.3419 8.7192 300.6522 34.6594 354.9860 18.7996 353.7172 323.3663 82.7387 0.5809 346.6773 22.5128 359.3387 356.6311 58.9629 42.3165 10.2815 336.8131 353.8783 29.2335 280.4172 353.3530 18.0727 1.6485 357.7011 357.4874 358.8910 10.2563 359.9607 4.6863 352.6828 23.9846 2.0049 351.7433 359.9025 359.5393 17.4597 9.1878 355.3249 345.5374 337.8477 
-4.1722 88.8055 191.0001 2.4077 358.9127 175.1790 3.0361 358.8661 358.4310 358.2685 13.0826 358.5995 1.5208 338.6120 0.6871 3.5065 3.3631 0.2928 338.5715 358.3790 8.7157 300.5418 34.4204 355.0321 18.8125 353.7425 323.4720 82.7425 0.4760 346.5887 22.5316 359.3178 356.6205 58.9898 42.3047 10.1928 336.8374 353.8525 29.2908 280.4101 353.3619 18.1300 1.6492 357.7153 357.4890 358.8934 10.2549 359.9684 4.7045 352.6696 23.9402 2.0058 351.7722 359.9034 359.5386 17.4600 9.1503 355.2797 345.5194 337.8294 
-4.1578 88.8049 190.9662 2.3967 358.9042 175.2400 3.0479 358.8909 358.4179 358.2256 13.0482 358.5917 1.5823 338.6889 0.7337 3.4468 3.3114 0.3341 338.5827 358.3461 8.7732 300.4513 34.2692 355.0062 18.9399 353.6981 323.5913 82.6887 0.3414 346.4702 22.5528 359.3446 356.6263 58.9819 42.2470 10.1349 336.9364 353.8851 29.3189 280.3684 353.3634 18.1607 1.6466 357.7206 357.4897 358.8988 10.2506 359.9482 4.6472 352.6240 23.8950 1.9947 351.7976 359.9552 359.5757 17.4589 9.0435 355.2546 345.5010 337.8147 
-4.1423 88.8072 190.9335 2.3925 358.8799 175.3036 3.0541 358.9123 358.4149 358.1877 12.9888 358.5951 1.8624 338.6462 0.8715 3.0569 3.5348 0.4257 338.6022 358.3291 8.7322 300.3407 33.8294 355.1372 18.8099 353.7587 323.5763 82.6823 0.3125 346.2103 22.5678 359.3437 356.6407 59.0171 42.2610 10.0551 336.8775 353.8976 29.3664 280.4102 353.3769 18.1802 1.6606 357.6918 357.4719 358.8899 10.2866 359.8815 4.6807 352.6111 23.9203 2.0003 351.7927 359.9465 359.5766 17.4797 9.0035 355.0275 345.6248 337.7762 
-4.1297 88.8057 190.8932 2.3871 358.8649 175.3702 3.0547 358.9047 358.4212 358.1684 12.9997 358.6008 1.8872 338.6789 0.8636 2.9818 3.5274 0.4109 338.6216 358.3768 8.6721 300.2668 33.2616 355.1748 18.5559 353.8756 323.5656 82.6446 0.2142 345.8753 22.5646 359.3096 356.6244 58.9973 42.3268 10.0431 336.8807 353.8673 29.3631 280.2646 353.2933 18.2213 1.6656 357.6958 357.4663 358.8860 10.2774 359.8480 4.6558 352.5941 23.9064 1.9979 351.8127 359.9005 359.5708 17.4713 8.9915 355.2660 345.4331 337.7958 
-4.1142 88.8059 190.8530 2.3829 358.8433 175.4537 3.0482 358.9087 358.4218 358.1579 12.9668 358.6036 1.8696 338.7155 0.8286 2.9641 3.5745 0.3800 338.6440 358.4085 8.5642 300.1856 32.7432 355.2792 18.3784 353.9366 323.4225 82.5635 0.2983 345.6112 22.5701 359.3290 356.6257 59.0165 42.2948 9.9823 337.0005 353.8889 29.4191 279.9955 353.4017 18.4023 1.6661 357.6746 357.4564 358.8996 10.2985 359.8406 4.6262 352.5631 23.8425 1.9958 351.8257 359.9204 359.5943 17.4847 8.9400 355.0098 345.5611 337.7119 
-4.1047 88.8052 190.8119 2.3739 358.8131 175.5311 3.0445 358.8966 358.4291 358.1446 12.9661 358.6110 1.8100 338.6718 0.7922 3.0069 3.6938 0.3476 338.6743 358.4130 8.4588 300.1202 32.1793 355.3731 18.1009 354.0290 323.2396 82.6393 0.3629 345.2641 22.5614 359.3296 356.6221 58.9846 42.3084 10.0011 337.0263 353.8580 29.4491 280.0010 353.3872 18.4811 1.6659 357.6515 357.4395 358.8984 10.3152 359.7848 4.6335 352.5415 23.8477 1.9868 351.8272 359.8752 359.5865 17.4992 8.9654 355.0045 345.5237 337.6836 
-4.0891 88.8048 190.7657 2.3653 358.7786 175.6046 3.0262 358.8937 358.4428 358.1357 12.9322 358.6272 1.7581 338.6489 0.7274 3.0210 3.8170 0.2906 338.6969 358.4164 8.4374 300.1472 31.9671 355.3990 17.9059 354.0664 323.1780 82.6981 0.3542 345.0192 22.5636 359.3294 356.6523 59.0504 42.3018 9.9032 336.9918 353.8780 29.4990 280.0245 353.2915 18.5949 1.6445 357.6136 357.5285 358.9638 10.3531 359.6912 4.6376 352.5086 23.7888 1.9906 351.8366 359.8763 359.5866 17.4847 8.8784 354.9929 345.4953 337.7026 
